# xmcd
#
# Track frame offsets: 
#        150
#        11864
#        24200
#        36355
#        49138
#        60937
#        77987
#        94551
#        110924
#        123184
#        138321
#        155728
#        172170
#        185660
#        201118
#        213754
#        226148
#        241909
#        258519
#
# Disc length: 3649 seconds
#
# Revision: 1
# Processed by: cddbd v1.5.2PL0 Copyright (c) Steve Scherf et al.
# Submitted via: ExactAudioCopy v0.99pb5
#
DISCID=040e3f13
DTITLE=Tom Astor - Take It Easy - Die Collection [CD 3 von 4)
DYEAR=2009
DGENRE=Country
TTITLE0=Ein unbekannter Stuntman (Unknown Stuntman)
TTITLE1=Jeden Montag
TTITLE2=Zuviel Du
TTITLE3=Und so bin ich auf den Hund gekommen
TTITLE4=Freunde
TTITLE5=Sturm und Drang
TTITLE6=Ich bin kein Mann fürs Paradies
TTITLE7=Irgendwie wird's schon geh'n
TTITLE8=Wir sind stärker als die Stürme
TTITLE9=Es ist noch lange nicht genug
TTITLE10=So ist das Leben
TTITLE11=Verrückt sein und sonst gar nichts
TTITLE12=Was uns nicht umhaut (macht uns stark)
TTITLE13=Bist du einsam heut' Nacht
TTITLE14=Freu' mich auf zuhause
TTITLE15=Hier riecht's nach Freiheit
TTITLE16=Ich kann gut im Regen steh'n
TTITLE17=Freundschaft
TTITLE18=Geisterreiter
EXTD=
EXTT0=
EXTT1=
EXTT2=
EXTT3=
EXTT4=
EXTT5=
EXTT6=
EXTT7=
EXTT8=
EXTT9=
EXTT10=
EXTT11=
EXTT12=
EXTT13=
EXTT14=
EXTT15=
EXTT16=
EXTT17=
EXTT18=
PLAYORDER=
